# xmcd CD database file
#
# Track frame offsets:
#	150
#	20962
#	42735
#	62360
#	82735
#	104245
#	123160
#	141422
#	159397
#	176282
#	194315
#
# Disc length: 2942 seconds
#
# Revision: 0
# Processed by: cddbd v1.4PL0 Copyright (c) Steve Scherf et al.
# Submitted via: CDex 1.50beta10
#
DISCID=950b7c0b
DTITLE=Lonnie Shields - Tired of Waiting
DYEAR=1996
DGENRE=Blues
TTITLE0=A Woman Is Dangerous
TTITLE1=Your Tears Become My Tears
TTITLE2=If You Want My Loving (Come To Me)
TTITLE3=I Got The Blues
TTITLE4=If You Know Jesus
TTITLE5=Full Time Lover
TTITLE6=Cheating on Me
TTITLE7=All I Need Is Your Love
TTITLE8=Busy Man
TTITLE9=One More Chance
TTITLE10=Coming of the Lord
EXTD=YEAR: 1996
EXTT0=
EXTT1=
EXTT2=
EXTT3=
EXTT4=
EXTT5=
EXTT6=
EXTT7=
EXTT8=
EXTT9=
EXTT10=
PLAYORDER=
